<?xml version="1.0" standalone="no"?>
<!DOCTYPE svg PUBLIC "-//W3C//DTD SVG 20010904//EN"
 "http://www.w3.org/TR/2001/REC-SVG-20010904/DTD/svg10.dtd">
<svg version="1.0" xmlns="http://www.w3.org/2000/svg"
 width="612.000000pt" height="408.000000pt" viewBox="0 0 612.000000 408.000000"
 preserveAspectRatio="xMidYMid meet">

<g transform="translate(0.000000,408.000000) scale(0.100000,-0.100000)"
fill="#000000" stroke="none">
<path d="M1855 2645 c-159 -76 -268 -125 -274 -125 -5 0 -20 -9 -34 -20 -24
-19 -33 -43 -81 -215 -110 -400 -127 -469 -122 -490 4 -15 17 -27 38 -34 81
-26 572 -151 594 -151 32 0 49 29 72 125 37 153 112 450 127 501 25 86 23 94
-82 237 -53 72 -108 144 -122 160 -28 31 -67 35 -116 12z m94 -107 c13 -23 13
-29 -2 -52 -34 -52 -111 -25 -105 38 6 58 77 67 107 14z m-76 -220 c48 -25 71
-116 43 -166 -35 -63 -130 -82 -185 -36 -115 97 8 273 142 202z m-143 -248
c22 -11 57 -20 80 -20 32 0 48 -7 80 -36 47 -43 65 -94 56 -157 -11 -75 -12
-75 -228 -17 -106 28 -199 53 -205 55 -29 10 5 103 53 149 51 47 106 56 164
26z"/>
<path d="M3070 2096 l0 -216 25 0 c13 0 28 7 33 16 9 16 11 16 33 0 14 -9 43
-16 70 -16 87 0 137 70 126 175 -6 61 -20 86 -58 109 -34 20 -81 21 -119 1
-17 -9 -30 -12 -31 -8 0 5 -1 40 -2 78 l-2 70 -37 3 -38 3 0 -215z m194 2 c24
-34 21 -120 -4 -143 -24 -21 -72 -24 -94 -5 -24 19 -22 145 2 159 31 19 80 13
96 -11z"/>
<path d="M3730 2112 c0 -224 3 -232 73 -232 32 0 37 3 37 23 0 12 -9 28 -20
35 -19 11 -20 23 -20 192 l0 180 -35 0 -35 0 0 -198z"/>
<path d="M2430 2085 l0 -205 130 0 130 0 0 30 0 30 -90 0 -90 0 0 175 0 175
-40 0 -40 0 0 -205z"/>
<path d="M4290 2080 l0 -200 35 0 35 0 0 200 0 200 -35 0 -35 0 0 -200z"/>
<path d="M4450 2080 l0 -202 108 3 c98 4 113 7 149 31 59 39 86 101 81 182 -8
126 -73 176 -239 184 l-99 5 0 -203z m194 125 c44 -21 66 -63 66 -125 0 -93
-45 -140 -135 -140 l-45 0 0 140 0 140 41 0 c23 0 55 -7 73 -15z"/>
<path d="M2783 2169 c-34 -10 -37 -16 -27 -42 4 -12 19 -13 71 -9 56 4 68 2
80 -13 23 -32 16 -45 -24 -45 -61 -1 -117 -17 -135 -41 -26 -31 -23 -91 5
-117 32 -30 104 -30 141 -1 l27 22 15 -22 c11 -14 26 -21 50 -21 29 0 34 3 34
24 0 13 -7 26 -15 30 -12 4 -15 24 -15 91 0 79 -2 87 -29 117 -25 28 -35 32
-87 34 -32 2 -74 -1 -91 -7z m135 -181 c5 -46 -77 -80 -108 -43 -28 34 16 78
75 73 24 -2 31 -8 33 -30z"/>
<path d="M3469 2157 c-64 -42 -84 -118 -53 -197 25 -61 68 -83 154 -78 77 4
92 12 83 46 -4 16 -10 21 -22 16 -9 -3 -34 -8 -56 -11 -46 -6 -95 24 -95 58 0
17 8 19 95 19 l95 0 0 40 c0 23 -7 54 -15 70 -31 61 -124 79 -186 37z m114
-39 c9 -7 18 -24 19 -38 3 -24 1 -25 -59 -28 -56 -3 -63 -1 -63 16 0 47 64 78
103 50z"/>
<path d="M3940 2173 c-33 -12 -60 -47 -60 -78 0 -44 17 -62 85 -88 51 -20 60
-27 60 -48 0 -21 -5 -24 -38 -27 -22 -2 -52 1 -67 7 -25 8 -30 7 -36 -11 -9
-30 10 -42 79 -46 100 -6 158 36 141 103 -8 33 -30 50 -96 75 -62 23 -73 43
-35 61 17 8 35 8 63 0 40 -11 57 -2 51 29 -4 23 -103 39 -147 23z"/>
</g>
</svg>
