<?xml version="1.0" encoding="UTF-8" standalone="no"?>
<svg
   version="1.0"
   width="344.53552pt"
   height="104.96944pt"
   viewBox="0 0 344.53552 104.96944"
   preserveAspectRatio="xMidYMid meet"
   id="svg22"
   sodipodi:docname="315949ff623122869508aabcd20d62f0.svg"
   xmlns:inkscape="http://www.inkscape.org/namespaces/inkscape"
   xmlns:sodipodi="http://sodipodi.sourceforge.net/DTD/sodipodi-0.dtd"
   xmlns="http://www.w3.org/2000/svg"
   xmlns:svg="http://www.w3.org/2000/svg">
  <defs
     id="defs26" />
  <sodipodi:namedview
     id="namedview24"
     pagecolor="#ffffff"
     bordercolor="#666666"
     borderopacity="1.0"
     inkscape:pageshadow="2"
     inkscape:pageopacity="0.0"
     inkscape:pagecheckerboard="0"
     inkscape:document-units="pt" />
  <g
     transform="matrix(0.1,0,0,-0.1,-134.32307,265.96944)"
     fill="#000000"
     stroke="none"
     id="g20">
    <path
       d="m 1855,2645 c -159,-76 -268,-125 -274,-125 -5,0 -20,-9 -34,-20 -24,-19 -33,-43 -81,-215 -110,-400 -127,-469 -122,-490 4,-15 17,-27 38,-34 81,-26 572,-151 594,-151 32,0 49,29 72,125 37,153 112,450 127,501 25,86 23,94 -82,237 -53,72 -108,144 -122,160 -28,31 -67,35 -116,12 z m 94,-107 c 13,-23 13,-29 -2,-52 -34,-52 -111,-25 -105,38 6,58 77,67 107,14 z m -76,-220 c 48,-25 71,-116 43,-166 -35,-63 -130,-82 -185,-36 -115,97 8,273 142,202 z m -143,-248 c 22,-11 57,-20 80,-20 32,0 48,-7 80,-36 47,-43 65,-94 56,-157 -11,-75 -12,-75 -228,-17 -106,28 -199,53 -205,55 -29,10 5,103 53,149 51,47 106,56 164,26 z"
       id="path2" />
    <path
       d="m 3070,2096 v -216 h 25 c 13,0 28,7 33,16 9,16 11,16 33,0 14,-9 43,-16 70,-16 87,0 137,70 126,175 -6,61 -20,86 -58,109 -34,20 -81,21 -119,1 -17,-9 -30,-12 -31,-8 0,5 -1,40 -2,78 l -2,70 -37,3 -38,3 z m 194,2 c 24,-34 21,-120 -4,-143 -24,-21 -72,-24 -94,-5 -24,19 -22,145 2,159 31,19 80,13 96,-11 z"
       id="path4" />
    <path
       d="m 3730,2112 c 0,-224 3,-232 73,-232 32,0 37,3 37,23 0,12 -9,28 -20,35 -19,11 -20,23 -20,192 v 180 h -35 -35 z"
       id="path6" />
    <path
       d="m 2430,2085 v -205 h 130 130 v 30 30 h -90 -90 v 175 175 h -40 -40 z"
       id="path8" />
    <path
       d="m 4290,2080 v -200 h 35 35 v 200 200 h -35 -35 z"
       id="path10" />
    <path
       d="m 4450,2080 v -202 l 108,3 c 98,4 113,7 149,31 59,39 86,101 81,182 -8,126 -73,176 -239,184 l -99,5 z m 194,125 c 44,-21 66,-63 66,-125 0,-93 -45,-140 -135,-140 h -45 v 140 140 h 41 c 23,0 55,-7 73,-15 z"
       id="path12" />
    <path
       d="m 2783,2169 c -34,-10 -37,-16 -27,-42 4,-12 19,-13 71,-9 56,4 68,2 80,-13 23,-32 16,-45 -24,-45 -61,-1 -117,-17 -135,-41 -26,-31 -23,-91 5,-117 32,-30 104,-30 141,-1 l 27,22 15,-22 c 11,-14 26,-21 50,-21 29,0 34,3 34,24 0,13 -7,26 -15,30 -12,4 -15,24 -15,91 0,79 -2,87 -29,117 -25,28 -35,32 -87,34 -32,2 -74,-1 -91,-7 z m 135,-181 c 5,-46 -77,-80 -108,-43 -28,34 16,78 75,73 24,-2 31,-8 33,-30 z"
       id="path14" />
    <path
       d="m 3469,2157 c -64,-42 -84,-118 -53,-197 25,-61 68,-83 154,-78 77,4 92,12 83,46 -4,16 -10,21 -22,16 -9,-3 -34,-8 -56,-11 -46,-6 -95,24 -95,58 0,17 8,19 95,19 h 95 v 40 c 0,23 -7,54 -15,70 -31,61 -124,79 -186,37 z m 114,-39 c 9,-7 18,-24 19,-38 3,-24 1,-25 -59,-28 -56,-3 -63,-1 -63,16 0,47 64,78 103,50 z"
       id="path16" />
    <path
       d="m 3940,2173 c -33,-12 -60,-47 -60,-78 0,-44 17,-62 85,-88 51,-20 60,-27 60,-48 0,-21 -5,-24 -38,-27 -22,-2 -52,1 -67,7 -25,8 -30,7 -36,-11 -9,-30 10,-42 79,-46 100,-6 158,36 141,103 -8,33 -30,50 -96,75 -62,23 -73,43 -35,61 17,8 35,8 63,0 40,-11 57,-2 51,29 -4,23 -103,39 -147,23 z"
       id="path18" />
  </g>
</svg>
